#!OML:ASF F:\VICON\USERDATA\INSTALL\rory3\rory3.ASF
:FULLY-SPECIFIED
:DEGREES
79
root 0.195364 18.1326 -15.9391 -3.35079 0.445331 -6.42526
lowerback 11.7459 0.179693 2.95702
upperback 0.429082 0.82863 3.00953
thorax -6.15198 0.36536 1.35894
lowerneck -15.8252 -3.2875 -1.848
upperneck 21.3371 -4.14787 0.185378
head 9.38259 -2.06318 -0.153619
rclavicle -5.72748e-015 -1.07344e-014
rhumerus -29.3419 -21.6681 -77.8016
rradius 23.3661
rwrist 7.4303
rhand -17.7953 21.9667
rfingers 7.12502
rthumb 8.46793 -7.84349
lclavicle -5.72748e-015 -1.07344e-014
lhumerus -31.0619 7.7791 82.6425
lradius 25.5047
lwrist 8.99636
lhand -28.2385 13.696
lfingers 7.12502
lthumb -1.61623 43.6696
rfemur -8.18143 4.77826 33.6916
rtibia 28.3378
rfoot -13.4134 -10.6271
rtoes 9.49045
lfemur -22.5623 0.751213 -12.747
ltibia 71.4491
lfoot -2.07928 -7.92074
ltoes -9.19431
80
root 0.201574 18.1106 -15.7881 -3.22345 0.265021 -6.41641
lowerback 11.7497 0.310954 3.09754
upperback 0.41845 1.01535 2.89828
thorax -6.16129 0.450986 1.13104
lowerneck -15.6829 -3.32116 -1.76798
upperneck 21.1706 -4.21515 0.182557
head 9.29676 -2.08948 -0.171853
rclavicle -8.01351e-015 -1.07344e-014
rhumerus -28.8089 -21.0672 -78.2508
rradius 23.715
rwrist 6.74457
rhand -17.6173 21.4636
rfingers 7.12502
rthumb 8.63964 -8.33962
lclavicle -8.01351e-015 -1.07344e-014
lhumerus -31.0342 7.92525 82.4644
lradius 25.026
lwrist 8.5494
lhand -28.8106 8.5953
lfingers 7.12502
lthumb -2.1688 38.564
rfemur -7.93451 4.88638 33.721
rtibia 28.6912
rfoot -14.2383 -10.5849
rtoes 9.77438
lfemur -23.7869 0.773254 -12.7907
ltibia 71.0101
lfoot -2.80892 -7.12429
ltoes -6.92962
81
root 0.212576 18.0847 -15.6331 -3.11034 -0.066398 -6.4557
lowerback 11.7426 0.518792 3.35182
upperback 0.427432 1.31507 2.74978
thorax -6.13778 0.588512 0.781109
lowerneck -15.8284 -3.46617 -1.69245
upperneck 21.2296 -4.43951 0.203575
head 9.345 -2.18439 -0.208955
rclavicle 2.37796e-014 4.07509e-014
rhumerus -28.3172 -20.4091 -78.7907
rradius 23.9902
rwrist 5.48317
rhand -17.3691 18.2048
rfingers 7.12502
rthumb 8.87915 -11.5884
lclavicle 2.37796e-014 4.07509e-014
lhumerus -31.0923 7.7313 82.2905
lradius 24.9596
lwrist 7.85798
lhand -27.4153 17.2771
lfingers 7.12502
lthumb -0.821217 47.2553
rfemur -7.63282 5.03141 33.7877
rtibia 29.0518
rfoot -15.0527 -10.4623
rtoes 12.3895
lfemur -24.859 0.859831 -12.7823
ltibia 70.4009
lfoot -3.61055 -6.23428
ltoes -7.22886
82
root 0.218105 18.0718 -15.4787 -3.04571 -0.261835 -6.71526
lowerback 11.8046 0.644035 3.69181
upperback 0.52054 1.52616 2.75228
thorax -6.06349 0.68372 0.556734
lowerneck -16.2967 -3.52792 -1.73545
upperneck 21.3416 -4.52002 0.260817
head 9.47433 -2.21537 -0.203014
rclavicle -1.55301e-015 -5.56597e-015
rhumerus -27.6576 -19.6864 -79.2959
rradius 24.5592
rwrist 4.68853
rhand -17.1534 13.3919
rfingers 7.12502
rthumb 9.08733 -16.3924
lclavicle -1.55301e-015 -5.56597e-015
lhumerus -31.017 7.68398 82.2327
lradius 25.0292
lwrist 7.17433
lhand -26.7523 21.1051
lfingers 7.12502
lthumb -0.180819 51.0848
rfemur -7.19245 5.17418 34.148
rtibia 29.2673
rfoot -15.7223 -10.6711
rtoes 13.1228
lfemur -25.9633 0.75999 -12.4716
ltibia 69.5058
lfoot -4.12824 -5.61739
ltoes -7.1341
83
root 0.222363 18.0535 -15.3303 -2.96813 -0.139043 -6.91808
lowerback 11.884 0.597055 3.92557
upperback 0.535901 1.50312 2.8129
thorax -6.08823 0.666417 0.492293
lowerneck -16.1935 -3.48412 -1.86894
upperneck 21.1722 -4.41735 0.240771
head 9.39791 -2.18182 -0.170694
rclavicle -3.16813e-016 -1.5704e-014
rhumerus -27.081 -18.5178 -79.7453
rradius 25.2629
rwrist 4.2544
rhand -17.1791 12.1828
rfingers 7.12502
rthumb 9.06251 -17.6025
lclavicle -3.16813e-016 -1.5704e-014
lhumerus -31.0595 7.81556 82.2334
lradius 24.7274
lwrist 7.38357
lhand -26.3522 20.838
lfingers 7.12502
lthumb 0.205577 50.8177
rfemur -6.73662 5.14699 34.4433
rtibia 29.275
rfoot -16.2389 -10.9634
rtoes 10.3395
lfemur -26.8407 0.472629 -12.2494
ltibia 68.4141
lfoot -4.92906 -4.85827
ltoes -7.23031
84
root 0.230563 18.0414 -15.1777 -2.91585 -0.016833 -6.97732
lowerback 11.9115 0.505111 4.08341
upperback 0.51684 1.4052 2.81557
thorax -6.12219 0.613333 0.422699
lowerneck -15.8641 -3.43522 -2.02556
upperneck 20.9845 -4.3165 0.258269
head 9.27499 -2.14787 -0.117687
rclavicle -1.16227e-014 -2.78299e-014
rhumerus -26.5714 -17.5617 -80.0943
rradius 25.6218
rwrist 3.81594
rhand -17.4815 13.5554
rfingers 7.12502
rthumb 8.77068 -16.2424
lclavicle -1.16227e-014 -2.78299e-014
lhumerus -31.4447 8.10033 82.0968
lradius 24.5873
lwrist 7.54137
lhand -26.2812 21.9632
lfingers 7.12502
lthumb 0.274187 51.9427
rfemur -6.16855 4.99091 34.5581
rtibia 29.079
rfoot -16.5899 -11.1733
rtoes 8.05391
lfemur -27.6105 0.0854332 -12.1762
ltibia 67.0347
lfoot -5.25822 -4.27554
ltoes -7.18694
85
root 0.238608 18.0355 -15.0234 -2.82966 -0.0941622 -7.0176
lowerback 12.0034 0.509011 4.19099
upperback 0.433761 1.43538 2.82007
thorax -6.25912 0.622153 0.361102
lowerneck -15.6049 -3.39598 -2.10467
upperneck 20.7961 -4.24177 0.245064
head 9.16261 -2.12261 -0.0928876
rclavicle 9.56651e-015 3.38928e-014
rhumerus -26.2588 -16.2383 -80.4689
rradius 26.0823
rwrist 2.61455
rhand -17.778 10.8283
rfingers 7.12502
rthumb 8.48459 -18.9812
lclavicle 9.56651e-015 3.38928e-014
lhumerus -31.8975 8.2165 82.0262
lradius 24.5791
lwrist 7.47272
lhand -27.4637 20.627
lfingers 7.12502
lthumb -0.867973 50.605
rfemur -5.60925 4.96686 34.6485
rtibia 28.8799
rfoot -16.8766 -11.2898
rtoes 7.74855
lfemur -28.2652 -0.135499 -12.1269
ltibia 65.3984
lfoot -5.43618 -3.64623
ltoes -5.62887
86
root 0.243575 18.0322 -14.8632 -2.63551 -0.424304 -7.13802
lowerback 12.0388 0.694101 4.40179
upperback 0.341014 1.71241 2.74965
thorax -6.36309 0.747626 0.12075
lowerneck -15.6881 -3.43903 -1.94734
upperneck 20.8424 -4.33536 0.222647
head 9.19051 -2.15569 -0.140184
rclavicle -3.28927e-015 -6.75868e-015
rhumerus -25.9658 -15.5116 -80.7765
rradius 26.5398
rwrist 2.03104
rhand -17.7475 7.84242
rfingers 7.12502
rthumb 8.51399 -21.9659
lclavicle -3.28927e-015 -6.75868e-015
lhumerus -32.0641 7.99627 81.9191
lradius 24.3029
lwrist 7.47233
lhand -29.3553 10.5948
lfingers 7.12502
lthumb -2.69484 40.5575
rfemur -5.07772 5.28406 34.8197
rtibia 28.7028
rfoot -17.4051 -11.144
rtoes 10.4099
lfemur -28.83 -0.074149 -11.9571
ltibia 63.5993
lfoot -5.65076 -2.82783
ltoes -5.19146
87
root 0.2507 18.0233 -14.7015 -2.49346 -0.789268 -7.27433
lowerback 12.0573 0.934002 4.71957
upperback 0.403409 2.06351 2.61734
thorax -6.2811 0.909841 -0.256643
lowerneck -16.1158 -3.49109 -1.7755
upperneck 20.937 -4.44745 0.236323
head 9.29925 -2.1898 -0.187152
rclavicle -4.30493e-015 -8.74653e-015
rhumerus -25.4777 -15.0984 -81.1008
rradius 27.1006
rwrist 1.6751
rhand -18.2613 11.4324
rfingers 7.12502
rthumb 8.01814 -18.3955
lclavicle -4.30493e-015 -8.74653e-015
lhumerus -31.967 7.76273 81.7719
lradius 24.115
lwrist 7.39066
lhand -26.8159 19.3425
lfingers 7.12502
lthumb -0.242315 49.3221
rfemur -4.52024 5.47795 34.9852
rtibia 28.5706
rfoot -17.9332 -10.9293
rtoes 11.8337
lfemur -29.2672 -0.000184317 -11.7688
ltibia 61.7326
lfoot -6.09787 -1.87362
ltoes -5.47454
88
root 0.258794 17.9974 -14.5458 -2.44448 -0.947753 -7.34594
lowerback 12.1484 1.02783 4.85289
upperback 0.478714 2.2066 2.58782
thorax -6.24085 0.976986 -0.388068
lowerneck -16.3176 -3.47357 -1.69499
upperneck 20.8972 -4.42475 0.175013
head 9.31874 -2.17855 -0.221855
rclavicle -3.08567e-014 -4.13969e-014
rhumerus -24.8672 -14.5381 -81.3692
rradius 27.5528
rwrist 1.32107
rhand -18.9173 18.7977
rfingers 7.12502
rthumb 7.38495 -11.0535
lclavicle -3.08567e-014 -4.13969e-014
lhumerus -31.9836 7.82178 81.6991
lradius 24.0254
lwrist 7.45067
lhand -25.9686 22.5149
lfingers 7.12502
lthumb 0.57605 52.4938
rfemur -3.96648 5.37701 35.0979
rtibia 28.5037
rfoot -18.2564 -11.1021
rtoes 9.49529
lfemur -29.6616 -0.0851689 -11.6576
ltibia 59.8826
lfoot -6.65633 -1.10846
ltoes -5.61333
89
root 0.271273 17.9692 -14.3843 -2.2704 -1.02749 -7.44588
lowerback 11.9821 1.04625 4.99701
upperback 0.48101 2.2414 2.62971
thorax -6.14016 0.992802 -0.42652
lowerneck -16.2419 -3.50694 -1.7673
upperneck 20.872 -4.43613 0.104368
head 9.29625 -2.19802 -0.233858
rclavicle -1.19209e-014 4.32357e-015
rhumerus -24.324 -13.6274 -81.5507
rradius 27.8882
rwrist 0.887532
rhand -19.293 22.0213
rfingers 7.12502
rthumb 7.02234 -7.8422
lclavicle -1.19209e-014 4.32357e-015
lhumerus -32.1406 8.07966 81.6342
lradius 23.8531
lwrist 7.53355
lhand -26.7344 17.2588
lfingers 7.12502
lthumb -0.163587 47.2385
rfemur -3.47202 5.40914 35.2396
rtibia 28.3797
rfoot -18.5397 -11.5233
rtoes 6.19165
lfemur -29.9718 -0.137038 -11.5527
ltibia 57.7364
lfoot -6.98045 -0.369765
ltoes -7.23208
